<mxfile host="app.diagrams.net" modified="2021-09-18T08:25:38.258Z" agent="5.0 (Windows NT 10.0; Win64; x64) AppleWebKit/537.36 (KHTML, like Gecko) Chrome/91.0.4472.124 Safari/537.36" etag="C-TfzaPv8T94ebex8LbD" version="15.2.1" type="github">
  <diagram id="B5jJC25mj0-t0FNHeOOL" name="第 1 页">
    <mxGraphModel dx="1422" dy="748" grid="1" gridSize="10" guides="1" tooltips="1" connect="1" arrows="1" fold="1" page="1" pageScale="1" pageWidth="827" pageHeight="1169" math="0" shadow="0">
      <root>
        <mxCell id="0" />
        <mxCell id="1" parent="0" />
        <mxCell id="5JDHJ3_cwMuTR78_X9k_-93" style="edgeStyle=none;rounded=0;orthogonalLoop=1;jettySize=auto;html=1;" edge="1" parent="1" source="5JDHJ3_cwMuTR78_X9k_-92">
          <mxGeometry relative="1" as="geometry">
            <mxPoint x="653" y="590" as="targetPoint" />
            <Array as="points">
              <mxPoint x="653" y="860" />
            </Array>
          </mxGeometry>
        </mxCell>
        <mxCell id="5JDHJ3_cwMuTR78_X9k_-18" style="edgeStyle=none;rounded=0;orthogonalLoop=1;jettySize=auto;html=1;exitX=0.5;exitY=1;exitDx=0;exitDy=0;" edge="1" parent="1" source="5JDHJ3_cwMuTR78_X9k_-17">
          <mxGeometry relative="1" as="geometry">
            <mxPoint x="133" y="120" as="targetPoint" />
          </mxGeometry>
        </mxCell>
        <mxCell id="5JDHJ3_cwMuTR78_X9k_-17" value="初始化" style="rounded=1;whiteSpace=wrap;html=1;align=center;" vertex="1" parent="1">
          <mxGeometry x="63" y="40" width="140" height="40" as="geometry" />
        </mxCell>
        <mxCell id="5JDHJ3_cwMuTR78_X9k_-21" style="edgeStyle=none;rounded=0;orthogonalLoop=1;jettySize=auto;html=1;exitX=0.5;exitY=1;exitDx=0;exitDy=0;" edge="1" parent="1" source="5JDHJ3_cwMuTR78_X9k_-19">
          <mxGeometry relative="1" as="geometry">
            <mxPoint x="135" y="200" as="targetPoint" />
          </mxGeometry>
        </mxCell>
        <mxCell id="5JDHJ3_cwMuTR78_X9k_-19" value="加载 解析&amp;nbsp; mybatis-config.xml" style="rounded=1;whiteSpace=wrap;html=1;align=center;" vertex="1" parent="1">
          <mxGeometry x="40" y="120" width="190" height="35" as="geometry" />
        </mxCell>
        <mxCell id="5JDHJ3_cwMuTR78_X9k_-20" value="Mybatis&amp;nbsp; 配置文件" style="text;html=1;align=center;verticalAlign=middle;resizable=0;points=[];autosize=1;strokeColor=none;fillColor=none;" vertex="1" parent="1">
          <mxGeometry x="243" y="127.5" width="110" height="20" as="geometry" />
        </mxCell>
        <mxCell id="5JDHJ3_cwMuTR78_X9k_-24" style="edgeStyle=none;rounded=0;orthogonalLoop=1;jettySize=auto;html=1;exitX=0.5;exitY=1;exitDx=0;exitDy=0;" edge="1" parent="1" source="5JDHJ3_cwMuTR78_X9k_-22">
          <mxGeometry relative="1" as="geometry">
            <mxPoint x="133" y="280" as="targetPoint" />
          </mxGeometry>
        </mxCell>
        <mxCell id="5JDHJ3_cwMuTR78_X9k_-58" style="edgeStyle=none;rounded=0;orthogonalLoop=1;jettySize=auto;html=1;exitX=1;exitY=0.5;exitDx=0;exitDy=0;" edge="1" parent="1" source="5JDHJ3_cwMuTR78_X9k_-22">
          <mxGeometry relative="1" as="geometry">
            <mxPoint x="673" y="570" as="targetPoint" />
            <Array as="points">
              <mxPoint x="453" y="460" />
            </Array>
          </mxGeometry>
        </mxCell>
        <mxCell id="5JDHJ3_cwMuTR78_X9k_-22" value="生成Configuration" style="rounded=1;whiteSpace=wrap;html=1;align=center;" vertex="1" parent="1">
          <mxGeometry x="60.5" y="200" width="145" height="30" as="geometry" />
        </mxCell>
        <mxCell id="5JDHJ3_cwMuTR78_X9k_-23" value="全局 Configuration 配置对象" style="text;html=1;align=center;verticalAlign=middle;resizable=0;points=[];autosize=1;strokeColor=none;fillColor=none;" vertex="1" parent="1">
          <mxGeometry x="213" y="190" width="170" height="20" as="geometry" />
        </mxCell>
        <mxCell id="5JDHJ3_cwMuTR78_X9k_-54" style="edgeStyle=none;rounded=0;orthogonalLoop=1;jettySize=auto;html=1;exitX=0.5;exitY=1;exitDx=0;exitDy=0;" edge="1" parent="1" source="5JDHJ3_cwMuTR78_X9k_-25">
          <mxGeometry relative="1" as="geometry">
            <mxPoint x="178" y="575" as="targetPoint" />
          </mxGeometry>
        </mxCell>
        <mxCell id="5JDHJ3_cwMuTR78_X9k_-25" value="创建 DefaultSqlSessionFactory" style="rounded=1;whiteSpace=wrap;html=1;align=center;" vertex="1" parent="1">
          <mxGeometry x="63" y="490" width="230" height="25" as="geometry" />
        </mxCell>
        <mxCell id="5JDHJ3_cwMuTR78_X9k_-26" value="解析到的全部配置信息 都会记录到Configuraion 中" style="text;html=1;align=center;verticalAlign=middle;resizable=0;points=[];autosize=1;strokeColor=none;fillColor=none;" vertex="1" parent="1">
          <mxGeometry x="223" y="210" width="280" height="20" as="geometry" />
        </mxCell>
        <mxCell id="5JDHJ3_cwMuTR78_X9k_-28" style="edgeStyle=none;rounded=0;orthogonalLoop=1;jettySize=auto;html=1;exitX=1;exitY=0.5;exitDx=0;exitDy=0;" edge="1" parent="1" source="5JDHJ3_cwMuTR78_X9k_-27">
          <mxGeometry relative="1" as="geometry">
            <mxPoint x="323" y="300" as="targetPoint" />
          </mxGeometry>
        </mxCell>
        <mxCell id="5JDHJ3_cwMuTR78_X9k_-68" style="edgeStyle=none;rounded=0;orthogonalLoop=1;jettySize=auto;html=1;exitX=0.25;exitY=1;exitDx=0;exitDy=0;" edge="1" parent="1" source="5JDHJ3_cwMuTR78_X9k_-27">
          <mxGeometry relative="1" as="geometry">
            <mxPoint x="113" y="480" as="targetPoint" />
          </mxGeometry>
        </mxCell>
        <mxCell id="5JDHJ3_cwMuTR78_X9k_-27" value="XMLConfigBuilder.parse()" style="rounded=1;whiteSpace=wrap;html=1;align=center;" vertex="1" parent="1">
          <mxGeometry x="73" y="280" width="160" height="40" as="geometry" />
        </mxCell>
        <mxCell id="5JDHJ3_cwMuTR78_X9k_-29" value="&amp;lt;properties&amp;gt; 标签" style="rounded=1;whiteSpace=wrap;html=1;align=center;" vertex="1" parent="1">
          <mxGeometry x="343" y="260" width="120" height="30" as="geometry" />
        </mxCell>
        <mxCell id="5JDHJ3_cwMuTR78_X9k_-30" value="&amp;lt;typeAliases&amp;gt; 标签" style="rounded=1;whiteSpace=wrap;html=1;align=center;" vertex="1" parent="1">
          <mxGeometry x="343" y="290" width="120" height="30" as="geometry" />
        </mxCell>
        <mxCell id="5JDHJ3_cwMuTR78_X9k_-31" value="........" style="rounded=1;whiteSpace=wrap;html=1;align=center;" vertex="1" parent="1">
          <mxGeometry x="343" y="320" width="120" height="30" as="geometry" />
        </mxCell>
        <mxCell id="5JDHJ3_cwMuTR78_X9k_-34" style="edgeStyle=none;rounded=0;orthogonalLoop=1;jettySize=auto;html=1;exitX=1;exitY=0.5;exitDx=0;exitDy=0;" edge="1" parent="1" source="5JDHJ3_cwMuTR78_X9k_-32">
          <mxGeometry relative="1" as="geometry">
            <mxPoint x="523" y="365" as="targetPoint" />
          </mxGeometry>
        </mxCell>
        <mxCell id="5JDHJ3_cwMuTR78_X9k_-32" value="&amp;lt;mappers&amp;gt; 标签" style="rounded=1;whiteSpace=wrap;html=1;align=center;" vertex="1" parent="1">
          <mxGeometry x="343" y="350" width="120" height="30" as="geometry" />
        </mxCell>
        <mxCell id="5JDHJ3_cwMuTR78_X9k_-33" value="该标签指定了 Mapper配置的存储位置" style="text;html=1;align=center;verticalAlign=middle;resizable=0;points=[];autosize=1;strokeColor=none;fillColor=none;" vertex="1" parent="1">
          <mxGeometry x="123" y="360" width="220" height="20" as="geometry" />
        </mxCell>
        <mxCell id="5JDHJ3_cwMuTR78_X9k_-35" value="MapperRegistry.addMapper" style="rounded=1;whiteSpace=wrap;html=1;align=center;" vertex="1" parent="1">
          <mxGeometry x="1203" y="350" width="170" height="25" as="geometry" />
        </mxCell>
        <mxCell id="5JDHJ3_cwMuTR78_X9k_-36" value="knownMappers.put(type , new MapperProxyFactory(type))" style="text;html=1;align=center;verticalAlign=middle;resizable=0;points=[];autosize=1;strokeColor=#9673a6;fillColor=#e1d5e7;" vertex="1" parent="1">
          <mxGeometry x="1203" y="387.5" width="320" height="20" as="geometry" />
        </mxCell>
        <mxCell id="5JDHJ3_cwMuTR78_X9k_-37" value="扫描 接口类中的注解配置" style="text;html=1;align=center;verticalAlign=middle;resizable=0;points=[];autosize=1;strokeColor=#9673a6;fillColor=#e1d5e7;" vertex="1" parent="1">
          <mxGeometry x="1203" y="417.5" width="150" height="20" as="geometry" />
        </mxCell>
        <mxCell id="5JDHJ3_cwMuTR78_X9k_-40" style="edgeStyle=none;rounded=0;orthogonalLoop=1;jettySize=auto;html=1;exitX=1;exitY=0.5;exitDx=0;exitDy=0;" edge="1" parent="1" source="5JDHJ3_cwMuTR78_X9k_-39">
          <mxGeometry relative="1" as="geometry">
            <mxPoint x="833" y="365" as="targetPoint" />
          </mxGeometry>
        </mxCell>
        <mxCell id="5JDHJ3_cwMuTR78_X9k_-39" value="XmlMapperBuilder.parse()" style="rounded=1;whiteSpace=wrap;html=1;align=center;" vertex="1" parent="1">
          <mxGeometry x="523" y="350" width="160" height="30" as="geometry" />
        </mxCell>
        <mxCell id="5JDHJ3_cwMuTR78_X9k_-41" value="configurationElement" style="text;html=1;align=center;verticalAlign=middle;resizable=0;points=[];autosize=1;strokeColor=none;fillColor=none;" vertex="1" parent="1">
          <mxGeometry x="693" y="340" width="130" height="20" as="geometry" />
        </mxCell>
        <mxCell id="5JDHJ3_cwMuTR78_X9k_-42" value="namespace 属性" style="rounded=1;whiteSpace=wrap;html=1;align=center;" vertex="1" parent="1">
          <mxGeometry x="833" y="350" width="120" height="30" as="geometry" />
        </mxCell>
        <mxCell id="5JDHJ3_cwMuTR78_X9k_-43" value="cache 属性" style="rounded=1;whiteSpace=wrap;html=1;align=center;" vertex="1" parent="1">
          <mxGeometry x="833" y="380" width="120" height="30" as="geometry" />
        </mxCell>
        <mxCell id="5JDHJ3_cwMuTR78_X9k_-44" value="&amp;lt;resultMap&amp;gt; 标签" style="rounded=1;whiteSpace=wrap;html=1;align=center;" vertex="1" parent="1">
          <mxGeometry x="833" y="410" width="120" height="30" as="geometry" />
        </mxCell>
        <mxCell id="5JDHJ3_cwMuTR78_X9k_-45" value="&amp;lt;sql&amp;gt; 标签" style="rounded=1;whiteSpace=wrap;html=1;align=center;" vertex="1" parent="1">
          <mxGeometry x="833" y="440" width="120" height="30" as="geometry" />
        </mxCell>
        <mxCell id="5JDHJ3_cwMuTR78_X9k_-46" value="......." style="rounded=1;whiteSpace=wrap;html=1;align=center;" vertex="1" parent="1">
          <mxGeometry x="833" y="470" width="120" height="30" as="geometry" />
        </mxCell>
        <mxCell id="5JDHJ3_cwMuTR78_X9k_-48" style="edgeStyle=none;rounded=0;orthogonalLoop=1;jettySize=auto;html=1;exitX=1;exitY=0.5;exitDx=0;exitDy=0;" edge="1" parent="1" source="5JDHJ3_cwMuTR78_X9k_-47">
          <mxGeometry relative="1" as="geometry">
            <mxPoint x="1013" y="515" as="targetPoint" />
          </mxGeometry>
        </mxCell>
        <mxCell id="5JDHJ3_cwMuTR78_X9k_-47" value="select | insert | update | delete" style="rounded=1;whiteSpace=wrap;html=1;align=center;" vertex="1" parent="1">
          <mxGeometry x="773" y="500" width="180" height="30" as="geometry" />
        </mxCell>
        <mxCell id="5JDHJ3_cwMuTR78_X9k_-61" style="edgeStyle=none;rounded=0;orthogonalLoop=1;jettySize=auto;html=1;exitX=0.5;exitY=1;exitDx=0;exitDy=0;entryX=1;entryY=0.75;entryDx=0;entryDy=0;" edge="1" parent="1" source="5JDHJ3_cwMuTR78_X9k_-49" target="5JDHJ3_cwMuTR78_X9k_-59">
          <mxGeometry relative="1" as="geometry" />
        </mxCell>
        <mxCell id="5JDHJ3_cwMuTR78_X9k_-49" value="MappedStatment 对象存储" style="rounded=1;whiteSpace=wrap;html=1;align=center;" vertex="1" parent="1">
          <mxGeometry x="1013" y="500" width="160" height="30" as="geometry" />
        </mxCell>
        <mxCell id="5JDHJ3_cwMuTR78_X9k_-50" value="" style="endArrow=classic;html=1;" edge="1" parent="1">
          <mxGeometry width="50" height="50" relative="1" as="geometry">
            <mxPoint x="1023" y="430" as="sourcePoint" />
            <mxPoint x="1193" y="360" as="targetPoint" />
          </mxGeometry>
        </mxCell>
        <mxCell id="5JDHJ3_cwMuTR78_X9k_-52" value="" style="shape=curlyBracket;whiteSpace=wrap;html=1;rounded=1;align=center;" vertex="1" parent="1">
          <mxGeometry x="973" y="350" width="20" height="170" as="geometry" />
        </mxCell>
        <mxCell id="5JDHJ3_cwMuTR78_X9k_-71" style="edgeStyle=none;rounded=0;orthogonalLoop=1;jettySize=auto;html=1;exitX=0.5;exitY=1;exitDx=0;exitDy=0;" edge="1" parent="1" source="5JDHJ3_cwMuTR78_X9k_-55">
          <mxGeometry relative="1" as="geometry">
            <mxPoint x="170" y="660" as="targetPoint" />
          </mxGeometry>
        </mxCell>
        <mxCell id="5JDHJ3_cwMuTR78_X9k_-55" value="SqlSession" style="rounded=1;whiteSpace=wrap;html=1;align=center;" vertex="1" parent="1">
          <mxGeometry x="110" y="575" width="120" height="30" as="geometry" />
        </mxCell>
        <mxCell id="5JDHJ3_cwMuTR78_X9k_-56" value="内部有Executor对象， 通过它来完成数据库操作以及事务管理" style="rounded=1;whiteSpace=wrap;html=1;align=center;" vertex="1" parent="1">
          <mxGeometry x="230" y="585" width="333" height="20" as="geometry" />
        </mxCell>
        <mxCell id="5JDHJ3_cwMuTR78_X9k_-59" value="MappedStatements" style="rounded=1;whiteSpace=wrap;html=1;align=center;" vertex="1" parent="1">
          <mxGeometry x="673" y="560" width="130" height="30" as="geometry" />
        </mxCell>
        <mxCell id="5JDHJ3_cwMuTR78_X9k_-60" value="Map" style="text;html=1;align=center;verticalAlign=middle;resizable=0;points=[];autosize=1;strokeColor=#b85450;fillColor=#f8cecc;" vertex="1" parent="1">
          <mxGeometry x="623" y="565" width="40" height="20" as="geometry" />
        </mxCell>
        <mxCell id="5JDHJ3_cwMuTR78_X9k_-62" value="放入Map 中" style="text;html=1;align=center;verticalAlign=middle;resizable=0;points=[];autosize=1;strokeColor=none;fillColor=none;" vertex="1" parent="1">
          <mxGeometry x="833" y="540" width="80" height="20" as="geometry" />
        </mxCell>
        <mxCell id="5JDHJ3_cwMuTR78_X9k_-64" value="key:&amp;nbsp; namespace + id （接口的全路径+方法名）" style="text;html=1;align=center;verticalAlign=middle;resizable=0;points=[];autosize=1;strokeColor=none;fillColor=none;" vertex="1" parent="1">
          <mxGeometry x="863" y="570" width="270" height="20" as="geometry" />
        </mxCell>
        <mxCell id="5JDHJ3_cwMuTR78_X9k_-65" value="value:&amp;nbsp; MappedStatment&amp;nbsp; 对象" style="text;html=1;align=center;verticalAlign=middle;resizable=0;points=[];autosize=1;strokeColor=none;fillColor=none;" vertex="1" parent="1">
          <mxGeometry x="863" y="590" width="180" height="20" as="geometry" />
        </mxCell>
        <mxCell id="5JDHJ3_cwMuTR78_X9k_-66" value="封装了 Sql中的配置信息" style="text;html=1;align=center;verticalAlign=middle;resizable=0;points=[];autosize=1;strokeColor=none;fillColor=none;" vertex="1" parent="1">
          <mxGeometry x="1193" y="505" width="140" height="20" as="geometry" />
        </mxCell>
        <mxCell id="5JDHJ3_cwMuTR78_X9k_-70" value="Configuration.addMapper()" style="text;html=1;align=center;verticalAlign=middle;resizable=0;points=[];autosize=1;strokeColor=none;fillColor=none;" vertex="1" parent="1">
          <mxGeometry x="993" y="430" width="160" height="20" as="geometry" />
        </mxCell>
        <mxCell id="5JDHJ3_cwMuTR78_X9k_-73" style="edgeStyle=none;rounded=0;orthogonalLoop=1;jettySize=auto;html=1;exitX=1;exitY=0.5;exitDx=0;exitDy=0;" edge="1" parent="1" source="5JDHJ3_cwMuTR78_X9k_-72">
          <mxGeometry relative="1" as="geometry">
            <mxPoint x="333" y="675" as="targetPoint" />
          </mxGeometry>
        </mxCell>
        <mxCell id="5JDHJ3_cwMuTR78_X9k_-72" value="sqlSession.getMapper()" style="rounded=1;whiteSpace=wrap;html=1;align=center;" vertex="1" parent="1">
          <mxGeometry x="143" y="660" width="140" height="30" as="geometry" />
        </mxCell>
        <mxCell id="5JDHJ3_cwMuTR78_X9k_-75" style="edgeStyle=none;rounded=0;orthogonalLoop=1;jettySize=auto;html=1;exitX=1;exitY=0.5;exitDx=0;exitDy=0;" edge="1" parent="1" source="5JDHJ3_cwMuTR78_X9k_-74">
          <mxGeometry relative="1" as="geometry">
            <mxPoint x="533" y="675" as="targetPoint" />
          </mxGeometry>
        </mxCell>
        <mxCell id="5JDHJ3_cwMuTR78_X9k_-74" value="configuration.getMapper()" style="rounded=1;whiteSpace=wrap;html=1;align=center;" vertex="1" parent="1">
          <mxGeometry x="337" y="660" width="146" height="30" as="geometry" />
        </mxCell>
        <mxCell id="5JDHJ3_cwMuTR78_X9k_-78" style="edgeStyle=none;rounded=0;orthogonalLoop=1;jettySize=auto;html=1;exitX=1;exitY=0.5;exitDx=0;exitDy=0;entryX=0.75;entryY=1;entryDx=0;entryDy=0;entryPerimeter=0;" edge="1" parent="1" source="5JDHJ3_cwMuTR78_X9k_-76" target="5JDHJ3_cwMuTR78_X9k_-77">
          <mxGeometry relative="1" as="geometry">
            <Array as="points">
              <mxPoint x="1183" y="675" />
            </Array>
          </mxGeometry>
        </mxCell>
        <mxCell id="5JDHJ3_cwMuTR78_X9k_-76" value="MapperRegisty.getMapper()" style="rounded=1;whiteSpace=wrap;html=1;align=center;" vertex="1" parent="1">
          <mxGeometry x="533" y="662.5" width="180" height="25" as="geometry" />
        </mxCell>
        <mxCell id="5JDHJ3_cwMuTR78_X9k_-77" value="Map" style="text;html=1;align=center;verticalAlign=middle;resizable=0;points=[];autosize=1;strokeColor=#b85450;fillColor=#f8cecc;" vertex="1" parent="1">
          <mxGeometry x="1153" y="390" width="40" height="20" as="geometry" />
        </mxCell>
        <mxCell id="5JDHJ3_cwMuTR78_X9k_-79" value="根据传入的Class&amp;lt;?&amp;gt; 获取MapperProxyFactory对象" style="text;html=1;align=center;verticalAlign=middle;resizable=0;points=[];autosize=1;strokeColor=none;fillColor=none;" vertex="1" parent="1">
          <mxGeometry x="808" y="650" width="290" height="20" as="geometry" />
        </mxCell>
        <mxCell id="5JDHJ3_cwMuTR78_X9k_-82" style="edgeStyle=none;rounded=0;orthogonalLoop=1;jettySize=auto;html=1;" edge="1" parent="1">
          <mxGeometry relative="1" as="geometry">
            <mxPoint x="163" y="700" as="targetPoint" />
            <mxPoint x="713" y="700" as="sourcePoint" />
          </mxGeometry>
        </mxCell>
        <mxCell id="5JDHJ3_cwMuTR78_X9k_-80" value="创建 接口的代理实例" style="rounded=1;whiteSpace=wrap;html=1;align=center;" vertex="1" parent="1">
          <mxGeometry x="713" y="679" width="140" height="21" as="geometry" />
        </mxCell>
        <mxCell id="5JDHJ3_cwMuTR78_X9k_-84" style="edgeStyle=none;rounded=0;orthogonalLoop=1;jettySize=auto;html=1;exitX=0.5;exitY=1;exitDx=0;exitDy=0;" edge="1" parent="1" source="5JDHJ3_cwMuTR78_X9k_-83">
          <mxGeometry relative="1" as="geometry">
            <mxPoint x="107" y="770" as="targetPoint" />
          </mxGeometry>
        </mxCell>
        <mxCell id="5JDHJ3_cwMuTR78_X9k_-83" value="返回代理实例" style="rounded=1;whiteSpace=wrap;html=1;align=center;" vertex="1" parent="1">
          <mxGeometry x="53" y="700" width="108" height="30" as="geometry" />
        </mxCell>
        <mxCell id="5JDHJ3_cwMuTR78_X9k_-86" style="edgeStyle=none;rounded=0;orthogonalLoop=1;jettySize=auto;html=1;exitX=1;exitY=0.5;exitDx=0;exitDy=0;" edge="1" parent="1" source="5JDHJ3_cwMuTR78_X9k_-85">
          <mxGeometry relative="1" as="geometry">
            <mxPoint x="223" y="785" as="targetPoint" />
          </mxGeometry>
        </mxCell>
        <mxCell id="5JDHJ3_cwMuTR78_X9k_-85" value="调用接口方法" style="rounded=1;whiteSpace=wrap;html=1;align=center;" vertex="1" parent="1">
          <mxGeometry x="53" y="770" width="108" height="30" as="geometry" />
        </mxCell>
        <mxCell id="5JDHJ3_cwMuTR78_X9k_-87" value="调到代理对象的Invoker()方法" style="rounded=1;whiteSpace=wrap;html=1;align=center;" vertex="1" parent="1">
          <mxGeometry x="223" y="770" width="170" height="30" as="geometry" />
        </mxCell>
        <mxCell id="5JDHJ3_cwMuTR78_X9k_-88" value="method.getDeclaringClass().equals(Object.class)" style="rounded=1;whiteSpace=wrap;html=1;align=center;" vertex="1" parent="1">
          <mxGeometry x="393" y="790" width="280" height="20" as="geometry" />
        </mxCell>
        <mxCell id="5JDHJ3_cwMuTR78_X9k_-89" value="&amp;nbsp;Object类中声明的方法不进行代理调用" style="text;html=1;align=center;verticalAlign=middle;resizable=0;points=[];autosize=1;strokeColor=none;fillColor=none;" vertex="1" parent="1">
          <mxGeometry x="683" y="790" width="220" height="20" as="geometry" />
        </mxCell>
        <mxCell id="5JDHJ3_cwMuTR78_X9k_-91" style="edgeStyle=none;rounded=0;orthogonalLoop=1;jettySize=auto;html=1;exitX=1;exitY=0.5;exitDx=0;exitDy=0;" edge="1" parent="1" source="5JDHJ3_cwMuTR78_X9k_-90">
          <mxGeometry relative="1" as="geometry">
            <mxPoint x="923" y="820" as="targetPoint" />
          </mxGeometry>
        </mxCell>
        <mxCell id="5JDHJ3_cwMuTR78_X9k_-90" value="封装Method,&amp;nbsp; 调用invoker方法" style="rounded=1;whiteSpace=wrap;html=1;align=center;" vertex="1" parent="1">
          <mxGeometry x="393" y="810" width="170" height="20" as="geometry" />
        </mxCell>
        <mxCell id="5JDHJ3_cwMuTR78_X9k_-92" value="封装Method的时候， 会从Configuration 中获取&amp;nbsp; MappedStatment&amp;nbsp;" style="text;html=1;align=center;verticalAlign=middle;resizable=0;points=[];autosize=1;strokeColor=none;fillColor=none;" vertex="1" parent="1">
          <mxGeometry x="233" y="850" width="370" height="20" as="geometry" />
        </mxCell>
        <mxCell id="5JDHJ3_cwMuTR78_X9k_-94" value="key：interface全路径 + 方法名" style="text;html=1;align=center;verticalAlign=middle;resizable=0;points=[];autosize=1;strokeColor=none;fillColor=none;" vertex="1" parent="1">
          <mxGeometry x="473" y="880" width="180" height="20" as="geometry" />
        </mxCell>
        <mxCell id="5JDHJ3_cwMuTR78_X9k_-96" style="edgeStyle=none;rounded=0;orthogonalLoop=1;jettySize=auto;html=1;exitX=0.5;exitY=1;exitDx=0;exitDy=0;exitPerimeter=0;" edge="1" parent="1" source="5JDHJ3_cwMuTR78_X9k_-95">
          <mxGeometry relative="1" as="geometry">
            <mxPoint x="623" y="940" as="targetPoint" />
            <Array as="points">
              <mxPoint x="968" y="940" />
            </Array>
          </mxGeometry>
        </mxCell>
        <mxCell id="5JDHJ3_cwMuTR78_X9k_-95" value="执行sql语句" style="shape=cylinder3;whiteSpace=wrap;html=1;boundedLbl=1;backgroundOutline=1;size=15;align=center;" vertex="1" parent="1">
          <mxGeometry x="933" y="790" width="70" height="60" as="geometry" />
        </mxCell>
        <mxCell id="5JDHJ3_cwMuTR78_X9k_-99" style="edgeStyle=none;rounded=0;orthogonalLoop=1;jettySize=auto;html=1;exitX=0;exitY=0.5;exitDx=0;exitDy=0;entryX=1;entryY=0.5;entryDx=0;entryDy=0;" edge="1" parent="1" source="5JDHJ3_cwMuTR78_X9k_-97" target="5JDHJ3_cwMuTR78_X9k_-98">
          <mxGeometry relative="1" as="geometry" />
        </mxCell>
        <mxCell id="5JDHJ3_cwMuTR78_X9k_-97" value="返回数据" style="rounded=1;whiteSpace=wrap;html=1;align=center;" vertex="1" parent="1">
          <mxGeometry x="503" y="930" width="120" height="30" as="geometry" />
        </mxCell>
        <mxCell id="5JDHJ3_cwMuTR78_X9k_-100" style="edgeStyle=none;rounded=0;orthogonalLoop=1;jettySize=auto;html=1;exitX=0;exitY=0.5;exitDx=0;exitDy=0;" edge="1" parent="1" source="5JDHJ3_cwMuTR78_X9k_-98">
          <mxGeometry relative="1" as="geometry">
            <mxPoint x="133" y="945" as="targetPoint" />
          </mxGeometry>
        </mxCell>
        <mxCell id="5JDHJ3_cwMuTR78_X9k_-98" value="类型映射，参数映射，对象封装" style="rounded=1;whiteSpace=wrap;html=1;align=center;" vertex="1" parent="1">
          <mxGeometry x="253" y="930" width="180" height="30" as="geometry" />
        </mxCell>
        <mxCell id="5JDHJ3_cwMuTR78_X9k_-101" value="结果返回" style="rounded=1;whiteSpace=wrap;html=1;align=center;" vertex="1" parent="1">
          <mxGeometry x="40" y="930" width="90" height="30" as="geometry" />
        </mxCell>
      </root>
    </mxGraphModel>
  </diagram>
</mxfile>
